<svg width="16" height="16" viewBox="0 0 16 16" fill="none" xmlns="http://www.w3.org/2000/svg">
<path d="M15.1112 0C15.1112 0 15.1456 0.0408001 15.2 0.1176C15.4248 0.4296 16 1.3336 16 2.3992C16 3.0712 15.6936 3.6776 15.2 4.1128C14.6822 4.56126 14.0186 4.80557 13.3336 4.8C12.7695 4.80286 12.2172 4.63862 11.7464 4.328C11.0912 3.8912 10.6664 3.1904 10.6664 2.4C10.6664 3.1904 10.2424 3.8912 9.5864 4.328C9.1432 4.624 8.5944 4.8 8 4.8C7.43593 4.80286 6.88365 4.63862 6.4128 4.328C5.7576 3.8912 5.3328 3.1904 5.3328 2.4C5.3328 3.1904 4.9088 3.8912 4.2528 4.328C3.8096 4.624 3.2608 4.8 2.6664 4.8C1.98129 4.80535 1.31772 4.56075 0.8 4.112C0.3064 3.6776 0 3.0704 0 2.4C0 1.3344 0.5752 0.4312 0.8 0.1184C0.8552 0.0416 0.8888 0.000799942 0.8888 0.000799942L15.1112 0ZM13.3336 6.3992C13.9832 6.3992 14.6216 6.2552 15.2 5.9912V14.3968H16V16H11.6V9.6H4.4V16H0V14.3968H0.8V5.992C1.38562 6.26034 2.02223 6.39923 2.6664 6.3992C3.6344 6.3992 4.58 6.0792 5.3328 5.52C6.10534 6.09012 7.03986 6.39845 8 6.4C8.968 6.4 9.9136 6.08 10.6664 5.5208C11.439 6.09064 12.3736 6.39869 13.3336 6.4" fill="#42B58B"/>
<path d="M6 16.0002V11.2002H10V16.0002H6Z" fill="#42B58B"/>
</svg>
