<svg width="31" height="31" viewBox="0 0 31 31" fill="none" xmlns="http://www.w3.org/2000/svg">
<circle cx="15.4955" cy="15.4955" r="14.9955" stroke="white"/>
<g clip-path="url(#clip0_649_1423)">
<path d="M16.6393 12.574H19.0707L18.7941 15.106H16.6393V22.2578H13.4365V15.1138H11.9189V12.6208H13.4281C13.4281 12.5429 13.4281 12.4805 13.4281 12.4182C13.4281 11.8183 13.4281 11.2263 13.4281 10.6264C13.4326 10.1325 13.5847 9.64947 13.8675 9.23125C14.1502 8.81304 14.5526 8.47609 15.0295 8.25804C15.4344 8.06321 15.8817 7.95664 16.3375 7.94641C17.2262 7.94641 18.1149 7.94641 19.0204 7.94641V10.4005H17.3436C17.2548 10.3927 17.1652 10.4025 17.0808 10.4294C16.9964 10.4563 16.9192 10.4995 16.8541 10.5562C16.7891 10.613 16.7378 10.6819 16.7037 10.7585C16.6695 10.835 16.6533 10.9175 16.6561 11.0003C16.6225 11.5223 16.6393 12.0365 16.6393 12.574Z" fill="white"/>
</g>
<defs>
<clipPath id="clip0_649_1423">
<rect width="7.15179" height="14.3036" fill="white" transform="translate(11.9189 7.94641)"/>
</clipPath>
</defs>
</svg>
