<svg width="19" height="19" viewBox="0 0 19 19" fill="none" xmlns="http://www.w3.org/2000/svg">
<path d="M18.5219 7.3294L9.77188 0.141796C9.54064 -0.0472655 9.20938 -0.0472655 8.97812 0.141796L0.228123 7.3294C-0.0390573 7.54816 -0.0765573 7.9419 0.142185 8.20907C0.360927 8.47626 0.754685 8.51376 1.02186 8.29501L2.18748 7.33719V16.8748C2.18748 17.9092 3.0281 18.7498 4.06248 18.7498H6.87488V13.4374C6.87488 12.0562 7.99364 10.9374 9.37488 10.9374C10.7561 10.9374 11.8749 12.0562 11.8749 13.4374V18.7498H14.6873C15.7217 18.7498 16.5623 17.9092 16.5623 16.8748V7.33719L17.7279 8.29501C17.8435 8.39033 17.9841 8.4372 18.1248 8.4372C18.306 8.4372 18.4842 8.35908 18.6076 8.20908C18.8264 7.9419 18.7889 7.54814 18.5217 7.3294L18.5219 7.3294Z" fill="#42B58B"/>
</svg>
