<svg width="31" height="31" viewBox="0 0 31 31" fill="none" xmlns="http://www.w3.org/2000/svg">
<circle cx="15.4955" cy="15.4955" r="14.9955" stroke="white"/>
<g clip-path="url(#clip0_649_1429)">
<path d="M19.5346 11.4562H19.5413M12.5815 8.47632H19.2035C21.0322 8.47632 22.5146 9.95871 22.5146 11.7873V18.4094C22.5146 20.238 21.0322 21.7204 19.2035 21.7204H12.5815C10.7529 21.7204 9.27051 20.238 9.27051 18.4094V11.7873C9.27051 9.95871 10.7529 8.47632 12.5815 8.47632ZM18.5413 14.6812C18.6231 15.2323 18.5289 15.7951 18.2723 16.2897C18.0157 16.7842 17.6097 17.1852 17.1121 17.4357C16.6144 17.6862 16.0504 17.7734 15.5004 17.6849C14.9503 17.5963 14.4422 17.3366 14.0482 16.9427C13.6542 16.5487 13.3945 16.0406 13.306 15.4905C13.2175 14.9404 13.3047 14.3765 13.5552 13.8788C13.8057 13.3812 14.2067 12.9752 14.7012 12.7185C15.1958 12.4619 15.7586 12.3678 16.3097 12.4495C16.8719 12.5329 17.3923 12.7948 17.7942 13.1967C18.196 13.5986 18.458 14.119 18.5413 14.6812Z" stroke="#F3F3F3" stroke-width="2" stroke-linecap="round" stroke-linejoin="round"/>
</g>
<defs>
<clipPath id="clip0_649_1429">
<rect width="15.8929" height="15.8929" fill="white" transform="translate(7.94629 7.15186)"/>
</clipPath>
</defs>
</svg>
