<svg width="19" height="22" viewBox="0 0 19 22" fill="none" xmlns="http://www.w3.org/2000/svg">
<path fill-rule="evenodd" clip-rule="evenodd" d="M15.9573 12.2962L18.7885 17.0841H18.7895C19.0522 17.5289 18.8552 18.0866 18.3975 18.3441V18.3451L12.1575 21.8638C11.6946 22.1254 11.0859 22.0053 10.8326 21.5462C10.8326 21.5462 10.8326 21.5452 10.8315 21.5452L8.45791 17.531C8.44957 17.5167 8.43498 17.5086 8.41726 17.5086H4.16107C3.54915 17.5086 3.04878 17.02 3.04878 16.4226V8.55775C3.04878 8.54553 3.05295 8.53434 3.06234 8.52518L9.10544 2.62475C9.32226 2.41304 9.67668 2.41304 9.89351 2.62475L15.9366 8.52518C15.946 8.53434 15.9502 8.54451 15.9502 8.55775V12.2739C15.9512 12.282 15.9531 12.2891 15.9573 12.2962ZM12.8633 13.14C11.258 13.14 9.95584 14.4113 9.95584 15.9789C9.95584 17.5464 11.2578 18.8177 12.8633 18.8177C14.4686 18.8177 15.7708 17.5464 15.7708 15.9789C15.7708 14.4113 14.4688 13.14 12.8633 13.14ZM14.3686 17.5941L14.526 17.4363C14.5927 17.303 14.5687 17.1371 14.4551 17.0251L13.2448 15.8434C13.2354 15.8343 13.2313 15.8241 13.2313 15.8108V14.2465C13.2313 14.048 13.0666 13.8872 12.8633 13.8872C12.66 13.8872 12.4953 14.048 12.4953 14.2465V15.9788C12.4953 16.0795 12.537 16.1701 12.6058 16.2353L13.936 17.534C14.0496 17.645 14.2195 17.6684 14.3571 17.6032C14.3613 17.6002 14.3644 17.5981 14.3686 17.5941ZM10.2853 10.623C9.63899 10.454 9.11882 11.137 9.44616 11.6907C9.77245 12.2424 10.6387 12.1416 10.8107 11.5136C10.917 11.1248 10.6835 10.7268 10.2853 10.623ZM10.3895 2.14248L17.5156 9.10027C18.0545 9.62648 19 9.26414 19 8.49874C19 8.28092 18.9156 8.06209 18.7467 7.8972L18.7477 7.89619L11.4477 0.787793C10.3688 -0.262585 8.61336 -0.263627 7.53444 0.790846L0.25416 7.8982C-0.284769 8.4244 0.0863271 9.34757 0.870238 9.34757C1.09332 9.34757 1.31641 9.26513 1.48632 9.10024L8.61235 2.14245C9.10228 1.66409 9.89959 1.66412 10.3895 2.14248ZM9.20951 8.75216L9.34294 9.4056C9.3492 9.43715 9.32105 9.46463 9.28874 9.45954C9.19387 9.44224 9.11465 9.43715 9.00623 9.4972V9.49618C8.93118 9.53995 8.8728 9.60102 8.84361 9.68041L7.4009 13.6866C7.305 13.9532 7.31542 14.2087 7.45928 14.4509H7.45824L11.459 21.2154C11.5205 21.3192 11.6873 21.3263 11.7999 21.2602L18.041 17.7436V17.7446C18.1557 17.6805 18.2339 17.537 18.1724 17.4332H18.1734L14.1726 10.6677C14.0277 10.4234 13.8119 10.2881 13.5242 10.2362L10.1289 9.61427C10.1102 9.61122 10.0956 9.59697 10.0914 9.57865L9.79637 8.13537C9.7922 8.11603 9.80054 8.09771 9.81826 8.08754C10.4416 7.72113 10.5563 6.87431 10.034 6.36538C9.3252 5.67327 8.10869 6.1669 8.10869 7.14401C8.10869 7.69466 8.52358 8.15471 9.07086 8.23308C9.09066 8.23614 9.1063 8.25039 9.10943 8.26973L9.20951 8.75216Z" fill="#42B58B"/>
</svg>
