<svg width="18" height="18" viewBox="0 0 18 18" fill="none" xmlns="http://www.w3.org/2000/svg">
<path d="M5.81615 16.71C4.85833 16.3819 3.97397 15.8897 3.20215 15.2662C3.58419 15.0506 3.98809 14.8584 4.41231 14.6943C4.80607 15.4975 5.28257 16.1795 5.81615 16.71Z" fill="#42B58B"/>
<path d="M13.9763 15.2678C13.2044 15.8896 12.3201 16.3818 11.3623 16.7099C11.8982 16.1803 12.3725 15.4982 12.7662 14.6943C13.1904 14.8576 13.5943 15.0498 13.9763 15.2678Z" fill="#42B58B"/>
<path d="M17.1801 8.96777C17.0777 11.21 16.1121 13.2318 14.6059 14.7076C14.1316 14.4216 13.6262 14.1732 13.0918 13.9638C13.6637 12.5459 14.0121 10.8356 14.0535 8.96781L17.1801 8.96777Z" fill="#42B58B"/>
<path d="M4.08592 13.9638C3.55154 14.174 3.04608 14.4216 2.5742 14.706C1.06796 13.2318 0.1016 11.21 0 8.96777H3.1242C3.16795 10.8357 3.51404 12.546 4.08592 13.9638Z" fill="#42B58B"/>
<path d="M4.08592 3.17091C3.51404 4.58887 3.16796 6.30051 3.1242 8.16851H0C0.102344 5.92471 1.07032 3.90291 2.5758 2.42871C3.04768 2.71465 3.55388 2.96233 4.08592 3.17091Z" fill="#42B58B"/>
<path d="M17.1793 8.16849H14.0535C14.0113 6.30053 13.6637 4.58889 13.0918 3.17089C13.6262 2.96307 14.1316 2.71465 14.6035 2.42871C16.1098 3.90293 17.0777 5.92469 17.1793 8.16849Z" fill="#42B58B"/>
<path d="M13.9764 1.8679C13.5943 2.08586 13.1904 2.27572 12.7662 2.43978C12.3724 1.63744 11.8982 0.955401 11.3623 0.425781C12.3201 0.753901 13.2045 1.24604 13.9764 1.8679Z" fill="#42B58B"/>
<path d="M5.81523 0.425861C5.28085 0.955541 4.80507 1.63758 4.41133 2.43986C3.98711 2.2758 3.58321 2.08596 3.20117 1.86954C3.97383 1.2461 4.85747 0.754001 5.81523 0.425861Z" fill="#42B58B"/>
<path d="M8.18793 13.9424V17.1362C7.00199 16.9502 5.94413 15.944 5.17773 14.43C6.12461 14.1425 7.14023 13.976 8.18793 13.9424Z" fill="#42B58B"/>
<path d="M12.0013 14.4298V14.4322C11.2357 15.9462 10.1732 16.9526 8.9873 17.1362V13.9424C10.0357 13.976 11.0553 14.1423 12.0013 14.4298Z" fill="#42B58B"/>
<path d="M13.2536 8.96777C13.2099 10.7357 12.8755 12.3638 12.3357 13.696C11.2833 13.3663 10.1497 13.178 8.98809 13.1436L8.9873 8.96783L13.2536 8.96777Z" fill="#42B58B"/>
<path d="M8.18754 8.96783V13.1436C7.02582 13.178 5.89374 13.3655 4.84374 13.696C4.3039 12.3639 3.96952 10.7358 3.92578 8.96777L8.18754 8.96783Z" fill="#42B58B"/>
<path d="M8.18978 3.98988V8.16808H3.92578C3.96953 6.40012 4.3039 4.77208 4.8461 3.43848C5.8961 3.76816 7.0281 3.95644 8.1899 3.99004L8.18978 3.98988Z" fill="#42B58B"/>
<path d="M13.2542 8.16804H8.99023V3.98984C10.152 3.95546 11.284 3.76796 12.334 3.4375C12.8762 4.77188 13.2105 6.40004 13.2542 8.16804Z" fill="#42B58B"/>
<path d="M12.0004 2.70392C11.0543 2.9922 10.0364 3.15782 8.99023 3.1922V0C10.1746 0.185938 11.234 1.18976 12.0004 2.70392Z" fill="#42B58B"/>
<path d="M8.18989 8.00133e-05V3.19228C7.14223 3.1579 6.12589 2.99228 5.17969 2.704C5.94375 1.18994 7.00391 0.18608 8.18989 8.00133e-05Z" fill="#42B58B"/>
</svg>
